<?xml version="1.0" encoding="utf-8"?>
<!-- Generator: Adobe Illustrator 17.1.0, SVG Export Plug-In . SVG Version: 6.00 Build 0)  -->
<!DOCTYPE svg PUBLIC "-//W3C//DTD SVG 1.1//EN" "http://www.w3.org/Graphics/SVG/1.1/DTD/svg11.dtd">
<svg version="1.1" id="Layer_1" xmlns="http://www.w3.org/2000/svg" xmlns:xlink="http://www.w3.org/1999/xlink" x="0px" y="0px"
	 viewBox="0 0 95.2 37.9" enable-background="new 0 0 95.2 37.9" xml:space="preserve">
<path fill="#FAD505" d="M4.9,35.4c-0.1,2-1.1,2.5-2.5,2.5S0,37,0,35.4s2.5-5.6,2.5-5.6S5.1,33.4,4.9,35.4z"/>
<path fill="#08AAB5" d="M14.5,25.9c-0.1,2-1.1,2.5-2.5,2.5s-2.4-0.8-2.5-2.5c0-1.6,2.5-5.6,2.5-5.6S14.6,23.9,14.5,25.9z"/>
<path fill="#EE2556" d="M24,35.4c-0.1,2-1.1,2.5-2.5,2.5s-2.4-0.8-2.5-2.5s2.5-5.6,2.5-5.6S24.1,33.4,24,35.4z"/>
<path fill="#FAD505" d="M33.6,25.9c-0.1,2-1.1,2.5-2.5,2.5s-2.4-0.8-2.5-2.5c0-1.6,2.5-5.6,2.5-5.6S33.7,23.9,33.6,25.9z"/>
<path fill="#F99F1B" d="M43.1,35.4c-0.1,2-1.1,2.5-2.5,2.5c-1.4,0-2.4-0.8-2.5-2.5c0-1.6,2.5-5.6,2.5-5.6S43.2,33.4,43.1,35.4z"/>
<path fill="#A7BF39" d="M52.6,25.9c-0.1,2-1.1,2.5-2.5,2.5c-1.4,0-2.4-0.8-2.5-2.5c0-1.6,2.5-5.6,2.5-5.6S52.7,23.9,52.6,25.9z"/>
<path fill="#08AAB5" d="M62.2,35.4c-0.1,2-1.1,2.5-2.5,2.5c-1.4,0-2.4-0.8-2.5-2.5s2.5-5.6,2.5-5.6S62.3,33.4,62.2,35.4z"/>
<path fill="#EE2556" d="M71.7,25.9c-0.1,2-1.1,2.5-2.5,2.5s-2.4-0.8-2.5-2.5c0-1.6,2.5-5.6,2.5-5.6S71.8,23.9,71.7,25.9z"/>
<path fill="#F99F1B" d="M81.2,35.4c-0.1,2-1.1,2.5-2.5,2.5c-1.4,0-2.4-0.8-2.5-2.5s2.5-5.6,2.5-5.6S81.4,33.4,81.2,35.4z"/>
<path fill="#A7BF39" d="M90.8,25.9c-0.1,2-1.1,2.5-2.5,2.5c-1.4,0-2.4-0.8-2.5-2.5c0-1.6,2.5-5.6,2.5-5.6S90.9,23.9,90.8,25.9z"/>
<path fill="#F99F1B" d="M4.9,16.3c-0.1,2-1.1,2.5-2.5,2.5S0,18,0,16.3c0-1.6,2.5-5.6,2.5-5.6S5.1,14.3,4.9,16.3z"/>
<path fill="#A7BF39" d="M14.5,6.8c-0.1,2-1.1,2.5-2.5,2.5S9.6,8.4,9.5,6.8S12,1.2,12,1.2S14.6,4.8,14.5,6.8z"/>
<path fill="#FAD505" d="M24,16.3c-0.1,2-1.1,2.5-2.5,2.5s-2.4-0.8-2.5-2.5c0-1.6,2.5-5.6,2.5-5.6S24.1,14.3,24,16.3z"/>
<path fill="#08AAB5" d="M33.6,6.8c-0.1,2-1.1,2.5-2.5,2.5s-2.4-0.8-2.5-2.5c0-1.6,2.5-5.6,2.5-5.6S33.7,4.8,33.6,6.8z"/>
<path fill="#EE2556" d="M43.1,16.3c-0.1,2-1.1,2.5-2.5,2.5c-1.4,0-2.4-0.8-2.5-2.5c0-1.6,2.5-5.6,2.5-5.6S43.2,14.3,43.1,16.3z"/>
<path fill="#FAD505" d="M52.6,6.8c-0.1,2-1.1,2.5-2.5,2.5c-1.4,0-2.4-0.8-2.5-2.5s2.5-5.6,2.5-5.6S52.7,4.8,52.6,6.8z"/>
<path fill="#F99F1B" d="M62.2,16.3c-0.1,2-1.1,2.5-2.5,2.5c-1.4,0-2.4-0.8-2.5-2.5c0-1.6,2.5-5.6,2.5-5.6S62.3,14.3,62.2,16.3z"/>
<path fill="#A7BF39" d="M71.7,6.8c-0.1,2-1.1,2.5-2.5,2.5s-2.4-0.8-2.5-2.5s2.5-5.6,2.5-5.6S71.8,4.8,71.7,6.8z"/>
<path fill="#08AAB5" d="M81.2,16.3c-0.1,2-1.1,2.5-2.5,2.5c-1.4,0-2.4-0.8-2.5-2.5c0-1.6,2.5-5.6,2.5-5.6S81.4,14.3,81.2,16.3z"/>
<path fill="#EE2556" d="M90.8,6.8c-0.1,2-1.1,2.5-2.5,2.5c-1.4,0-2.4-0.8-2.5-2.5s2.5-5.6,2.5-5.6S90.9,4.8,90.8,6.8z"/>
</svg>
